<svg width="147.67999267578125px" height="141.239990234375px" xmlns="http://www.w3.org/2000/svg" viewBox="176.16000366210938 4.3800048828125 147.67999267578125 141.239990234375" style="background: none;" preserveAspectRatio="xMidYMid"><defs><filter id="editing-hole" x="-100%" y="-100%" width="300%" height="300%"><feFlood flood-color="#000000" result="black"></feFlood><feMorphology operator="dilate" radius="2" in="SourceGraphic" result="erode"></feMorphology><feGaussianBlur in="erode" stdDeviation="4" result="blur"></feGaussianBlur><feOffset in="blur" dx="2" dy="2" result="offset"></feOffset><feComposite operator="atop" in="offset" in2="black" result="merge"></feComposite><feComposite operator="in" in="merge" in2="SourceGraphic" result="inner-shadow"></feComposite></filter></defs><g filter="url(#editing-hole)"><g transform="translate(201.32500410079956, 97.8799991607666)"><path d="M45.63-45.44L45.63-45.44Q46.85-45.44 47.52-44.70L47.52-44.70L47.52-44.70Q48.19-43.97 48.19-42.75L48.19-42.75L48.19-2.24L48.19-2.24Q48.19-1.09 47.55-0.38L47.55-0.38L47.55-0.38Q46.91 0.32 45.76 0.32L45.76 0.32L45.76 0.32Q44.61 0.32 44.03-0.38L44.03-0.38L44.03-0.38Q43.46-1.09 43.46-2.24L43.46-2.24L43.46-34.94L29.57-8.32L29.57-8.32Q28.67-6.46 26.94-6.46L26.94-6.46L26.94-6.46Q25.28-6.46 24.32-8.32L24.32-8.32L10.37-34.62L10.37-2.24L10.37-2.24Q10.37-1.09 9.76-0.38L9.76-0.38L9.76-0.38Q9.15 0.32 8 0.32L8 0.32L8 0.32Q6.85 0.32 6.21-0.38L6.21-0.38L6.21-0.38Q5.57-1.09 5.57-2.24L5.57-2.24L5.57-42.75L5.57-42.75Q5.57-43.97 6.27-44.70L6.27-44.70L6.27-44.70Q6.98-45.44 8.19-45.44L8.19-45.44L8.19-45.44Q9.79-45.44 10.75-43.58L10.75-43.58L27.01-12.42L43.07-43.58L43.07-43.58Q43.58-44.61 44.19-45.02L44.19-45.02L44.19-45.02Q44.80-45.44 45.63-45.44L45.63-45.44ZM72.96 0.32L72.96 0.32Q71.74 0.32 71.01-0.42L71.01-0.42L71.01-0.42Q70.27-1.15 70.27-2.37L70.27-2.37L70.27-40.64L56.51-40.64L56.51-40.64Q55.36-40.64 54.72-41.22L54.72-41.22L54.72-41.22Q54.08-41.79 54.08-42.88L54.08-42.88L54.08-42.88Q54.08-43.97 54.72-44.54L54.72-44.54L54.72-44.54Q55.36-45.12 56.51-45.12L56.51-45.12L89.34-45.12L89.34-45.12Q90.50-45.12 91.14-44.54L91.14-44.54L91.14-44.54Q91.78-43.97 91.78-42.88L91.78-42.88L91.78-42.88Q91.78-41.79 91.14-41.22L91.14-41.22L91.14-41.22Q90.50-40.64 89.34-40.64L89.34-40.64L75.58-40.64L75.58-2.37L75.58-2.37Q75.58-1.15 74.88-0.42L74.88-0.42L74.88-0.42Q74.18 0.32 72.96 0.32L72.96 0.32Z" fill="#cd7f32"></path></g></g><style>text {
  font-size: 64px;
  font-family: Arial Black;
  dominant-baseline: central;
  text-anchor: middle;
}</style></svg>