<svg width="411.9599975585937px" height="141.239990234375px" xmlns="http://www.w3.org/2000/svg" viewBox="44.020001220703136 4.3800048828125 411.9599975585937 141.239990234375" style="background: none;" preserveAspectRatio="xMidYMid"><defs><filter id="editing-hole" x="-100%" y="-100%" width="300%" height="300%"><feFlood flood-color="#1b1b1b" result="black"></feFlood><feMorphology operator="dilate" radius="2" in="SourceGraphic" result="erode"></feMorphology><feGaussianBlur in="erode" stdDeviation="4" result="blur"></feGaussianBlur><feOffset in="blur" dx="2" dy="2" result="offset"></feOffset><feComposite operator="atop" in="offset" in2="black" result="merge"></feComposite><feComposite operator="in" in="merge" in2="SourceGraphic" result="inner-shadow"></feComposite></filter></defs><g filter="url(#editing-hole)"><g transform="translate(103.12000226974487, 97.94499969482422)"><path d="M45.63-45.44L45.63-45.44Q46.85-45.44 47.52-44.70L47.52-44.70L47.52-44.70Q48.19-43.97 48.19-42.75L48.19-42.75L48.19-2.24L48.19-2.24Q48.19-1.09 47.55-0.38L47.55-0.38L47.55-0.38Q46.91 0.32 45.76 0.32L45.76 0.32L45.76 0.32Q44.61 0.32 44.03-0.38L44.03-0.38L44.03-0.38Q43.46-1.09 43.46-2.24L43.46-2.24L43.46-34.94L29.57-8.32L29.57-8.32Q28.67-6.46 26.94-6.46L26.94-6.46L26.94-6.46Q25.28-6.46 24.32-8.32L24.32-8.32L10.37-34.62L10.37-2.24L10.37-2.24Q10.37-1.09 9.76-0.38L9.76-0.38L9.76-0.38Q9.15 0.32 8 0.32L8 0.32L8 0.32Q6.85 0.32 6.21-0.38L6.21-0.38L6.21-0.38Q5.57-1.09 5.57-2.24L5.57-2.24L5.57-42.75L5.57-42.75Q5.57-43.97 6.27-44.70L6.27-44.70L6.27-44.70Q6.98-45.44 8.19-45.44L8.19-45.44L8.19-45.44Q9.79-45.44 10.75-43.58L10.75-43.58L27.01-12.42L43.07-43.58L43.07-43.58Q43.58-44.61 44.19-45.02L44.19-45.02L44.19-45.02Q44.80-45.44 45.63-45.44L45.63-45.44ZM61.25 0.32L61.25 0.32Q60.10 0.32 59.36-0.35L59.36-0.35L59.36-0.35Q58.62-1.02 58.62-2.24L58.62-2.24L58.62-29.25L58.62-29.25Q58.62-30.46 59.36-31.14L59.36-31.14L59.36-31.14Q60.10-31.81 61.25-31.81L61.25-31.81L61.25-31.81Q62.40-31.81 63.10-31.14L63.10-31.14L63.10-31.14Q63.81-30.46 63.81-29.25L63.81-29.25L63.81-2.24L63.81-2.24Q63.81-0.96 63.10-0.32L63.10-0.32L63.10-0.32Q62.40 0.32 61.25 0.32L61.25 0.32ZM61.25-38.53L61.25-38.53Q59.71-38.53 58.75-39.42L58.75-39.42L58.75-39.42Q57.79-40.32 57.79-41.79L57.79-41.79L57.79-41.79Q57.79-43.20 58.75-44.10L58.75-44.10L58.75-44.10Q59.71-44.99 61.25-44.99L61.25-44.99L61.25-44.99Q62.78-44.99 63.74-44.10L63.74-44.10L63.74-44.10Q64.70-43.20 64.70-41.79L64.70-41.79L64.70-41.79Q64.70-40.32 63.74-39.42L63.74-39.42L63.74-39.42Q62.78-38.53 61.25-38.53L61.25-38.53ZM89.15-31.94L89.15-31.94Q100.35-31.94 100.35-19.58L100.35-19.58L100.35-2.24L100.35-2.24Q100.35-1.02 99.68-0.35L99.68-0.35L99.68-0.35Q99.01 0.32 97.79 0.32L97.79 0.32L97.79 0.32Q96.58 0.32 95.87-0.35L95.87-0.35L95.87-0.35Q95.17-1.02 95.17-2.24L95.17-2.24L95.17-19.26L95.17-19.26Q95.17-23.62 93.47-25.60L93.47-25.60L93.47-25.60Q91.78-27.58 88.06-27.58L88.06-27.58L88.06-27.58Q83.78-27.58 81.22-24.96L81.22-24.96L81.22-24.96Q78.66-22.34 78.66-17.86L78.66-17.86L78.66-2.24L78.66-2.24Q78.66-1.02 77.98-0.35L77.98-0.35L77.98-0.35Q77.31 0.32 76.10 0.32L76.10 0.32L76.10 0.32Q74.88 0.32 74.18-0.35L74.18-0.35L74.18-0.35Q73.47-1.02 73.47-2.24L73.47-2.24L73.47-29.25L73.47-29.25Q73.47-30.40 74.18-31.10L74.18-31.10L74.18-31.10Q74.88-31.81 76.10-31.81L76.10-31.81L76.10-31.81Q77.25-31.81 77.92-31.10L77.92-31.10L77.92-31.10Q78.59-30.40 78.59-29.31L78.59-29.31L78.59-26.05L78.59-26.05Q80.13-28.93 82.88-30.43L82.88-30.43L82.88-30.43Q85.63-31.94 89.15-31.94L89.15-31.94ZM112.45 0.32L112.45 0.32Q111.30 0.32 110.56-0.35L110.56-0.35L110.56-0.35Q109.82-1.02 109.82-2.24L109.82-2.24L109.82-29.25L109.82-29.25Q109.82-30.46 110.56-31.14L110.56-31.14L110.56-31.14Q111.30-31.81 112.45-31.81L112.45-31.81L112.45-31.81Q113.60-31.81 114.30-31.14L114.30-31.14L114.30-31.14Q115.01-30.46 115.01-29.25L115.01-29.25L115.01-2.24L115.01-2.24Q115.01-0.96 114.30-0.32L114.30-0.32L114.30-0.32Q113.60 0.32 112.45 0.32L112.45 0.32ZM112.45-38.53L112.45-38.53Q110.91-38.53 109.95-39.42L109.95-39.42L109.95-39.42Q108.99-40.32 108.99-41.79L108.99-41.79L108.99-41.79Q108.99-43.20 109.95-44.10L109.95-44.10L109.95-44.10Q110.91-44.99 112.45-44.99L112.45-44.99L112.45-44.99Q113.98-44.99 114.94-44.10L114.94-44.10L114.94-44.10Q115.90-43.20 115.90-41.79L115.90-41.79L115.90-41.79Q115.90-40.32 114.94-39.42L114.94-39.42L114.94-39.42Q113.98-38.53 112.45-38.53L112.45-38.53ZM155.52 0.32L155.52 0.32Q154.30 0.32 153.57-0.42L153.57-0.42L153.57-0.42Q152.83-1.15 152.83-2.37L152.83-2.37L152.83-40.64L139.07-40.64L139.07-40.64Q137.92-40.64 137.28-41.22L137.28-41.22L137.28-41.22Q136.64-41.79 136.64-42.88L136.64-42.88L136.64-42.88Q136.64-43.97 137.28-44.54L137.28-44.54L137.28-44.54Q137.92-45.12 139.07-45.12L139.07-45.12L171.90-45.12L171.90-45.12Q173.06-45.12 173.70-44.54L173.70-44.54L173.70-44.54Q174.34-43.97 174.34-42.88L174.34-42.88L174.34-42.88Q174.34-41.79 173.70-41.22L173.70-41.22L173.70-41.22Q173.06-40.64 171.90-40.64L171.90-40.64L158.14-40.64L158.14-2.37L158.14-2.37Q158.14-1.15 157.44-0.42L157.44-0.42L157.44-0.42Q156.74 0.32 155.52 0.32L155.52 0.32ZM192.38 0.45L192.38 0.45Q187.97 0.45 184.61-1.54L184.61-1.54L184.61-1.54Q181.25-3.52 179.42-7.20L179.42-7.20L179.42-7.20Q177.60-10.88 177.60-15.74L177.60-15.74L177.60-15.74Q177.60-20.61 179.42-24.29L179.42-24.29L179.42-24.29Q181.25-27.97 184.61-29.95L184.61-29.95L184.61-29.95Q187.97-31.94 192.38-31.94L192.38-31.94L192.38-31.94Q196.80-31.94 200.19-29.95L200.19-29.95L200.19-29.95Q203.58-27.97 205.41-24.29L205.41-24.29L205.41-24.29Q207.23-20.61 207.23-15.74L207.23-15.74L207.23-15.74Q207.23-10.88 205.41-7.20L205.41-7.20L205.41-7.20Q203.58-3.52 200.19-1.54L200.19-1.54L200.19-1.54Q196.80 0.45 192.38 0.45L192.38 0.45ZM192.38-3.84L192.38-3.84Q196.99-3.84 199.46-6.88L199.46-6.88L199.46-6.88Q201.92-9.92 201.92-15.74L201.92-15.74L201.92-15.74Q201.92-21.44 199.42-24.54L199.42-24.54L199.42-24.54Q196.93-27.65 192.38-27.65L192.38-27.65L192.38-27.65Q187.84-27.65 185.34-24.54L185.34-24.54L185.34-24.54Q182.85-21.44 182.85-15.74L182.85-15.74L182.85-15.74Q182.85-9.98 185.31-6.91L185.31-6.91L185.31-6.91Q187.78-3.84 192.38-3.84L192.38-3.84ZM227.90 0.45L227.90 0.45Q223.49 0.45 220.13-1.54L220.13-1.54L220.13-1.54Q216.77-3.52 214.94-7.20L214.94-7.20L214.94-7.20Q213.12-10.88 213.12-15.74L213.12-15.74L213.12-15.74Q213.12-20.61 214.94-24.29L214.94-24.29L214.94-24.29Q216.77-27.97 220.13-29.95L220.13-29.95L220.13-29.95Q223.49-31.94 227.90-31.94L227.90-31.94L227.90-31.94Q232.32-31.94 235.71-29.95L235.71-29.95L235.71-29.95Q239.10-27.97 240.93-24.29L240.93-24.29L240.93-24.29Q242.75-20.61 242.75-15.74L242.75-15.74L242.75-15.74Q242.75-10.88 240.93-7.20L240.93-7.20L240.93-7.20Q239.10-3.52 235.71-1.54L235.71-1.54L235.71-1.54Q232.32 0.45 227.90 0.45L227.90 0.45ZM227.90-3.84L227.90-3.84Q232.51-3.84 234.98-6.88L234.98-6.88L234.98-6.88Q237.44-9.92 237.44-15.74L237.44-15.74L237.44-15.74Q237.44-21.44 234.94-24.54L234.94-24.54L234.94-24.54Q232.45-27.65 227.90-27.65L227.90-27.65L227.90-27.65Q223.36-27.65 220.86-24.54L220.86-24.54L220.86-24.54Q218.37-21.44 218.37-15.74L218.37-15.74L218.37-15.74Q218.37-9.98 220.83-6.91L220.83-6.91L220.83-6.91Q223.30-3.84 227.90-3.84L227.90-3.84ZM253.12 0.32L253.12 0.32Q251.97 0.32 251.23-0.35L251.23-0.35L251.23-0.35Q250.50-1.02 250.50-2.24L250.50-2.24L250.50-42.88L250.50-42.88Q250.50-44.10 251.23-44.77L251.23-44.77L251.23-44.77Q251.97-45.44 253.12-45.44L253.12-45.44L253.12-45.44Q254.21-45.44 254.94-44.77L254.94-44.77L254.94-44.77Q255.68-44.10 255.68-42.88L255.68-42.88L255.68-2.24L255.68-2.24Q255.68-1.02 254.94-0.35L254.94-0.35L254.94-0.35Q254.21 0.32 253.12 0.32L253.12 0.32ZM275.84 0.45L275.84 0.45Q272.90 0.45 270.24-0.26L270.24-0.26L270.24-0.26Q267.58-0.96 265.54-2.24L265.54-2.24L265.54-2.24Q264.38-3.01 263.90-3.68L263.90-3.68L263.90-3.68Q263.42-4.35 263.42-5.31L263.42-5.31L263.42-5.31Q263.42-6.14 263.90-6.69L263.90-6.69L263.90-6.69Q264.38-7.23 265.15-7.23L265.15-7.23L265.15-7.23Q265.92-7.23 267.39-6.27L267.39-6.27L267.39-6.27Q269.31-5.12 271.20-4.45L271.20-4.45L271.20-4.45Q273.09-3.78 275.90-3.78L275.90-3.78L275.90-3.78Q279.36-3.78 281.28-4.99L281.28-4.99L281.28-4.99Q283.20-6.21 283.20-8.51L283.20-8.51L283.20-8.51Q283.20-9.92 282.50-10.78L282.50-10.78L282.50-10.78Q281.79-11.65 280.06-12.32L280.06-12.32L280.06-12.32Q278.34-12.99 275.01-13.70L275.01-13.70L275.01-13.70Q269.38-14.91 266.94-16.96L266.94-16.96L266.94-16.96Q264.51-19.01 264.51-22.53L264.51-22.53L264.51-22.53Q264.51-25.28 266.05-27.39L266.05-27.39L266.05-27.39Q267.58-29.50 270.30-30.72L270.30-30.72L270.30-30.72Q273.02-31.94 276.48-31.94L276.48-31.94L276.48-31.94Q278.98-31.94 281.31-31.26L281.31-31.26L281.31-31.26Q283.65-30.59 285.44-29.38L285.44-29.38L285.44-29.38Q287.62-27.84 287.62-26.18L287.62-26.18L287.62-26.18Q287.62-25.34 287.10-24.77L287.10-24.77L287.10-24.77Q286.59-24.19 285.89-24.19L285.89-24.19L285.89-24.19Q285.12-24.19 283.58-25.28L283.58-25.28L283.58-25.28Q281.79-26.43 280.19-27.07L280.19-27.07L280.19-27.07Q278.59-27.71 276.22-27.71L276.22-27.71L276.22-27.71Q273.22-27.71 271.39-26.37L271.39-26.37L271.39-26.37Q269.57-25.02 269.57-22.78L269.57-22.78L269.57-22.78Q269.57-21.38 270.24-20.51L270.24-20.51L270.24-20.51Q270.91-19.65 272.48-18.98L272.48-18.98L272.48-18.98Q274.05-18.30 276.99-17.66L276.99-17.66L276.99-17.66Q281.34-16.70 283.74-15.55L283.74-15.55L283.74-15.55Q286.14-14.40 287.17-12.74L287.17-12.74L287.17-12.74Q288.19-11.07 288.19-8.51L288.19-8.51L288.19-8.51Q288.19-4.48 284.80-2.02L284.80-2.02L284.80-2.02Q281.41 0.45 275.84 0.45L275.84 0.45Z" fill="#cd7f32"></path></g></g><style>text {
  font-size: 64px;
  font-family: Arial Black;
  dominant-baseline: central;
  text-anchor: middle;
}</style></svg>